<?xml version="1.0" encoding="utf-8"?>
<!-- Generator: Adobe Illustrator 19.0.0, SVG Export Plug-In . SVG Version: 6.00 Build 0)  -->
<svg version="1.1" id="Layer_1" xmlns="http://www.w3.org/2000/svg" xmlns:xlink="http://www.w3.org/1999/xlink" x="0px" y="0px"
	 viewBox="0 0 64 64" style="enable-background:new 0 0 64 64;" xml:space="preserve">
<g id="_x32_">
	<g id="XMLID_72_">
		<path id="XMLID_73_" d="M5.7,27.2l25.8-18l25.8,18v24.2h1.6V26.3L31.6,7.2l-0.1,0.1l-0.1-0.1L4.1,26.3v25h1.6V27.2z M46.8,53V33.3
			l-10.7-7.8l0,0l-0.3-0.3l0,0l-1.4-0.9L34.5,53h-4.9V24.4l-1.3,0.9l0,0l-0.3,0.3l0,0l-10.7,7.8V53H0v1.6h64V53H46.8z M27.9,53h-9
			V34.9l9,3.5V53z M27.9,37.5l-8.7-3.4l8.7-6.6V37.5z M36.1,27.6l8.7,6.6l-8.7,3.4V27.6z M45.1,53h-9V38.4l9-3.5V53z"/>
	</g>
</g>
</svg>
