<?xml version="1.0" encoding="UTF-8"?>
<svg id="Layer_1" xmlns="http://www.w3.org/2000/svg" version="1.1" viewBox="0 0 64 64">
  <!-- Generator: Adobe Illustrator 29.1.0, SVG Export Plug-In . SVG Version: 2.1.0 Build 142)  -->
  <g id="_x33_">
    <path d="M58,52v-21.5l-5-1.1v-6.4l3.3,1.1v-1.5l-15.7-5.6-25.5,6.9v7.5h0v1.6l24.9-4.8v23.8H7.7v-4.2l28.1-3.2v-9.9h0v-.6l-28.1,4v-15.2l32.7-12,16,6.4v6.8l1.7.5v-8.5h0c0-.1-17.5-7.1-17.5-7.1L5.9,21.8v16.6c0,0,0,1.6,0,1.6l28.9-4v7l-28.1,3.2h-.8v5.8H.2v1.7h63.5v-1.7h-5.7ZM16.7,31v-5.9c.1,0,23.8-6.4,23.8-6.4l11.7,3.9v6.5l-11.8-2.7-23.7,4.6ZM56.3,52h-15.6v-23.9l15.7,3.4v20.5h-.1ZM10.2,40.2v4.9l1.7-.2v-4.9l-1.7.2Z"/>
  </g>
</svg>