<?xml version="1.0" encoding="utf-8"?>
<!-- Generator: Adobe Illustrator 19.0.0, SVG Export Plug-In . SVG Version: 6.00 Build 0)  -->
<svg version="1.1" id="Layer_1" xmlns="http://www.w3.org/2000/svg" xmlns:xlink="http://www.w3.org/1999/xlink" x="0px" y="0px"
	 viewBox="0 0 64 64" style="enable-background:new 0 0 64 64;" xml:space="preserve">
<g id="_x34_">
	<g id="XMLID_66_">
		<path id="XMLID_67_" d="M59.2,61.8V49.7v-1.1h-3.8V23.3h6.4V22l-13-21.7l-0.2,0.1l0,0L2.6,22v1.3H13V32H3.5v2.2h0l0.2,27.6h-3.9
			V64H63v-2.2H59.2z M48.4,1.9L60.3,22H5.4L48.4,1.9z M5.4,34.2h21.7v27.6H4.9L5.4,34.2z M29,61.8V45.2h7.6v16.6H29z M37.5,45.2
			v-1.1H29v-9.9V32h-1.9H14.9v-8.7h38.7v38.5h-16V45.2z M55.4,61.8V49.7h2.8v12.1H55.4z"/>
	</g>
</g>
</svg>
