<?xml version="1.0" encoding="utf-8"?>
<!-- Generator: Adobe Illustrator 19.0.0, SVG Export Plug-In . SVG Version: 6.00 Build 0)  -->
<svg version="1.1" id="Layer_1" xmlns="http://www.w3.org/2000/svg" xmlns:xlink="http://www.w3.org/1999/xlink" x="0px" y="0px"
	 viewBox="0 0 64 64" style="enable-background:new 0 0 64 64;" xml:space="preserve">
<g id="_x36_">
	<g id="XMLID_105_">
		<path id="XMLID_106_" d="M57.8,57.5V13.7H56v1.5L44.4,28.2V8.3V6.6h-1.8H15.1h-1.8l0.1,8l-1.9,0v0H9.8v3.6v1.8h1.8h1.8l0.1,6.2
			H7.1V27v0.9v29.7H0v1.4h64v-1.4H57.8z M37.4,57.5H8.8V27.9h17.9l10.8,13.7V57.5z M38.6,57.5V41.6L26.7,26.1H15.1v-6.2v-1.8h-3.6
			v-1.8h3.6v-1.8V8.4l27.6,0l0,49.2H38.6z M56,57.5H44.4V30.2L56,17.1V57.5z M19.6,11.9h-0.9h0v0.4l0,9.3h0v0.9h0.9h18.7h0.9l0-9.8
			h0v-0.9h-0.9H19.6z M38.2,21.7H19.6v-8.9h18.7V21.7z M51.6,44.8h0.9v-0.9V32.3h-0.9v0.1h-1.8v-0.1h-0.9v11.6v0.9h0.9H51.6z
			 M49.8,33.1h1.8v10.8h-1.8V33.1z"/>
	</g>
</g>
</svg>
