<?xml version="1.0" encoding="utf-8"?>
<!-- Generator: Adobe Illustrator 19.0.0, SVG Export Plug-In . SVG Version: 6.00 Build 0)  -->
<svg version="1.1" id="Layer_1" xmlns="http://www.w3.org/2000/svg" xmlns:xlink="http://www.w3.org/1999/xlink" x="0px" y="0px"
	 viewBox="0 0 64 64" style="enable-background:new 0 0 64 64;" xml:space="preserve">
<g id="_x38_">
	<g id="XMLID_45_">
		<path id="XMLID_46_" d="M59,54.7V38.3v-8.2V16.8L48.6,7L12,17.5v1v1.4v7.8L5.8,29L6,30.2v24.6H3V57h10h1h48v-2.3H59z M14,19.3
			l34.2-9.7l8.8,8.6v10.6l-9.4-9L14,27.2V19.3z M14,54.7v-14h36v14H14z M51,40.7v-1.2h-1H13v1.2v14H8V30.9l39.1-8.5l9.9,9.4v6.5
			v16.4h-6V40.7z"/>
	</g>
</g>
</svg>
