<?xml version="1.0" encoding="utf-8"?>
<!-- Generator: Adobe Illustrator 19.0.0, SVG Export Plug-In . SVG Version: 6.00 Build 0)  -->
<svg version="1.1" id="Layer_1" xmlns="http://www.w3.org/2000/svg" xmlns:xlink="http://www.w3.org/1999/xlink" x="0px" y="0px"
	 viewBox="0 0 64 64" style="enable-background:new 0 0 64 64;" xml:space="preserve">
<g id="_x31_0">
	<g id="XMLID_61_">
		<path id="XMLID_62_" d="M56.7,55V11.4l0,0l5.7-2.6l-0.6-2L43,15.4L13.8,10L13.5,12l4.6,0.8v13.8L1.6,34.1l0.6,2l6-2.7V55H0.2v2.1
			h8.1H10h46.6h7.2V55H56.7z M19.9,13.2l19.9,3.6l-19.9,9V13.2z M38.7,55V41.4H45V55H38.7z M45.9,55V41.4v-1h-8.1v1V55H10V32.6
			l44.8-20.3V55H45.9z"/>
	</g>
</g>
</svg>
