<?xml version="1.0" encoding="utf-8"?>
<!-- Generator: Adobe Illustrator 19.0.0, SVG Export Plug-In . SVG Version: 6.00 Build 0)  -->
<svg version="1.1" id="Layer_1" xmlns="http://www.w3.org/2000/svg" xmlns:xlink="http://www.w3.org/1999/xlink" x="0px" y="0px"
	 viewBox="0 0 64 64" style="enable-background:new 0 0 64 64;" xml:space="preserve">
<g id="_x31_1">
	<g id="XMLID_58_">
		<path id="XMLID_59_" d="M47.8,62.5V10.4l-8.4-8.5L22.8,9.5v0.5h0l0,1v0l0,0l0,18.2l-8.8,4v0l0,0v29.2H9V64h5h1.3h36.3v-1.5H47.8z
			 M40.3,4.6l6.3,6.6v51.3h-6.3V4.6z M24,10.6l15-6.9v58.8h-2.5V34.1v-1.6l-8.1-5.2v-0.1h-1.3L24,28.7L24,10.6z M15.3,62.5V34.3
			l11.9-5.4v33.6H15.3z M28.4,29l6.9,4.3v29.2h-6.9V29z"/>
	</g>
</g>
</svg>
