<?xml version="1.0" encoding="utf-8"?>
<!-- Generator: Adobe Illustrator 19.0.0, SVG Export Plug-In . SVG Version: 6.00 Build 0)  -->
<svg version="1.1" id="Layer_1" xmlns="http://www.w3.org/2000/svg" xmlns:xlink="http://www.w3.org/1999/xlink" x="0px" y="0px"
	 viewBox="0 0 64 64" style="enable-background:new 0 0 64 64;" xml:space="preserve">
<g id="_x31_2">
	<g id="XMLID_67_">
		<path id="XMLID_68_" d="M54.4,52.7L42.5,1.2l-0.4,0.1l-0.4-0.2l-11.9,42l-6.5-25.8l-0.4,0.1l-0.4-0.2l-10,36l0.4,0.2v0.1h0.3
			l0.1,0.1l0-0.1h8.7v7.3h0.9v-7.3h8.7l0,0l0.1,0h10.2v7.6H12.8v1.5h41.6v-1.5H42.8v-7.6h11.6L54.4,52.7l-0.3,0.1L54.4,52.7z
			 M48.5,31.1L48.5,31.1l-5.7,6.4V21.4h-0.9v10.9l-6.1-7l6.3-22.1L48.5,31.1z M15.5,45.5l6.3,7.3h-8.4L15.5,45.5z M22.8,52.8v-6
			l4.6-5.3l-0.6-0.7l-3.9,4.6v-12h-0.9v18.4l-6.1-7.3l-0.1,0.1l7-25.2l8.5,33.5H22.8z M32.2,52.8l-2-7.9l5.2-18.5l6.4,7.3v13.4
			l-7.2-9L34,38.9l7.9,9.7v4.2H32.2z M42.8,39.1l6-6.9l4.7,20.6H42.8V39.1z"/>
	</g>
</g>
</svg>
