<?xml version="1.0" encoding="utf-8"?>
<!-- Generator: Adobe Illustrator 19.0.0, SVG Export Plug-In . SVG Version: 6.00 Build 0)  -->
<svg version="1.1" id="Layer_1" xmlns="http://www.w3.org/2000/svg" xmlns:xlink="http://www.w3.org/1999/xlink" x="0px" y="0px"
	 viewBox="0 0 64 64" style="enable-background:new 0 0 64 64;" xml:space="preserve">
<g id="_x31_3">
	<g id="XMLID_116_">
		<path id="XMLID_117_" d="M58.6,51.7v-3.7l4.6,0.1l0-1.5l0,0V41l-4.6-0.6V26.1l3.1,0.9l0-1.4l-22.6-6.8l-4.2,1.5v-5.6l4.2-1.2l0,0
			l22.6,8.1l0,5.4l1.5,0.3l0-6.9l-0.8-0.2l-23.2-8.4l-2.7,0.8l-5-1.5l-15.8,6.1V19L2.6,24.1H2.5v5.7h0l0,1.3l4.1-1.5v12l-3.8,0.6
			l0,0.9h0v5.4h1.5v0l2.3-0.1v3.2H2v1.5h62v-1.5H58.6z M34.9,45.8l0,0.8v-6.4l4.2-0.6l0,0l22.6,2.8v4.2L34.9,45.8z M34.9,47.3
			l3.8,0.1v4.3h-3.8V47.3z M57.9,40.3L39.5,38V20.4l18.4,5.5V40.3z M38.7,20.4v17.7l-3.8,0.5V21.7L38.7,20.4z M34.1,51.7h-2.3V12.9
			l2.3,0.6v0.6v0.7V51.7z M17.3,47.1V18l13-5v38.7h-13v-3.8l0,0L17.3,47.1z M15.8,25L4,29v-3.8l11.8-4.6V25z M7.3,29.4l8.4-3v13.8
			l-8.4,1.3V29.4z M4.2,43.7l11.5-1.9v4.6L4.2,47.1V43.7z M7.3,48.4l8.4-0.5v3.7H7.3V48.4z M39.5,51.7v-4.3l18.4,0.5v3.8H39.5z"/>
	</g>
</g>
</svg>
