<?xml version="1.0" encoding="utf-8"?>
<!-- Generator: Adobe Illustrator 19.0.0, SVG Export Plug-In . SVG Version: 6.00 Build 0)  -->
<svg version="1.1" id="Layer_1" xmlns="http://www.w3.org/2000/svg" xmlns:xlink="http://www.w3.org/1999/xlink" x="0px" y="0px"
	 viewBox="0 0 64 64" style="enable-background:new 0 0 64 64;" xml:space="preserve">
<g id="_x31_4">
	<g id="XMLID_64_">
		<path id="XMLID_65_" d="M59.8,43.9V27l-39.1-9L3.5,34.7v9.2H1.2v1.5h61.7v-1.5H59.8z M51.3,43.7l-10.2-0.4V28.7l10.2,1.9V43.7z
			 M40.3,43.2l-6.8-0.3V27.2l6.8,1.3V43.2z M32.8,42.9L22,42.4V25l10.8,2V42.9z M5,35l15.4-14.7v22.9l0,0l0,0.8l0,0H5V35z
			 M57.5,43.9L52,43.7V30L22,24.3v-4.8L58.2,28v16H57.5z"/>
	</g>
</g>
</svg>
