<?xml version="1.0" encoding="utf-8"?>
<!-- Generator: Adobe Illustrator 19.0.0, SVG Export Plug-In . SVG Version: 6.00 Build 0)  -->
<svg version="1.1" id="Layer_1" xmlns="http://www.w3.org/2000/svg" xmlns:xlink="http://www.w3.org/1999/xlink" x="0px" y="0px"
	 viewBox="0 0 64 64" style="enable-background:new 0 0 64 64;" xml:space="preserve">
<g id="_x31_5">
	<g id="XMLID_58_">
		<path id="XMLID_59_" d="M28,16.3L0.2,28.8L0.8,30l6.9-3.1v21.3H4.4v1.3h31.2V47h20.8v-1.3h-3.3V30.2l10.1,5l0.6-1.2L28,16.3
			L28,16.3z M8.9,34.6v-8.3l18.8-8.5v16.8H8.9L8.9,34.6z M28.4,34.6V17.9L44,25.6l0,20h-8.4v-9.7H44v-1.3H28.4L28.4,34.6z
			 M45.3,45.7l0-19.4l7.1,3.5v15.8H45.3L45.3,45.7z M8.9,48.3V35.9h26v12.3H8.9L8.9,48.3z"/>
	</g>
</g>
</svg>
