<?xml version="1.0" encoding="UTF-8"?>
<svg id="Layer_1" xmlns="http://www.w3.org/2000/svg" version="1.1" viewBox="0 0 63.8 63.8">
  <!-- Generator: Adobe Illustrator 29.1.0, SVG Export Plug-In . SVG Version: 2.1.0 Build 142)  -->
  <defs>
    <style>
      .st0 {
        fill: none;
        stroke: #000;
        stroke-miterlimit: 10;
      }
    </style>
  </defs>
  <path d="M10.6,48.1l1.4-4c0-.2-1.1-.2-1.5-.4-.6-.3-2.1-2.5-2.4-3.2-1.3-2.4-1.8-5.2-1-7.8.1-.4.4-1.4.8-1.5l7.4-.9c1.5-1.8,1.7-5,4.5-5.5h14.7c.3.2.5,1.7.5,2.1.6,4.7,1,9.7-1,14.1-.6,1.4-.8,1.7-2.4,2-.1.1.2,1.2.3,1.5.3,1.2,1.2,3.3,1.3,4.4,0,.8-.8,1-1.1.4l-1.6-5.7-.3-.2-5.6,1.6.6,6.6c-.2.7-1,.8-1.1.1-.4-2-.3-4.3-.6-6.3v-.2c-.1,0-3.2-.4-3.2-.4-.2.9.3,3.5-1.2,2.8-.4-.5.2-2.3,0-3l-5.9-.6c-.4.8-.6,1.7-.9,2.5,0,.2-.1.3-.2.6-.1.4-.3.8-.4,1.2l-.2.6c-.1.6-.2,1-.5,1.1-.6.2-.9-.3-.8-.8M33.7,25.8c-.2,0-.5.1-.7.1-4.4.1-8.8-.1-13.3,0-1.5.3-2.3,3.3-3.1,4.5,1.6,1,2.9,2.2,3.4,4.1l5.3.3c.4-.6.7-1.5,1.1-2,1.3-1.6,5.8-1.5,7.8-1.6l-.5-5.4h0ZM18.7,34.5c-.1-1-1.8-2.8-2.7-3-.3,0-.6,0-.9,0-2.1.1-4.5.7-6.6.8-1.7,3.6,0,7.8,2.6,10.5,4.3.4,8.6,1.1,12.8,1.3l8.6-2.5c1.5-2.8,2-6,1.8-9.1-1.8,0-3.6,0-5.4.5-1.1.3-1.3.2-1.9,1.2-1.1,1.9-2.7,6.4-4.5,7.5-1.2.7-4.5.4-5.9.3-.9,0-5.4-.6-5.8-1-.3-.2-1-1.5-1.1-2-.4-1.8.4-2.5,2-3.2,2.1-1,4.7-1.2,7-1.2h0ZM24.8,36c-3.6-.3-7.3-.9-10.9,0-.9.2-3.2,1-3.1,2.1,0,.5.6,1.6,1.1,1.8,1,.4,4.4.7,5.7.8,1.1,0,3.3.3,4.3,0,1.2-.5,2.4-3.5,3-4.7Z"/>
  <path d="M38.1,43.9c-.3,1-.9,2.7-1.2,3.8-.1.5-.1.6-.2.8,0,.3-.6.3-.7,0h0c-.2-.1,0-.5,0-.7v-.2s2.7-9.1,2.7-9.1c0-.4-3.2,0-2.9-1.2.2-.8,3.8-.7,4.7-.9,0,0,0,0-.3-.5-.2-.6-.2-1.4.2-1.6.3-.2.8,0,.8-.3,0-.3-.3-.7-.5-.9l-1.2-.6c.7-.3,1.1-.4,1.7.1l-.5-1.8c.3-.3.9,1.3,1.2,1.3v-2.1c.1,0,.5,1,.5,1v.9c.4,0,.4-.5.8-.6.3,0,.5,0,.8,0,0,.2-.3.2-.5.5,0,.1-.3.7-.3.7.6-.2,1.2-.3,1.7.2-.7,0-1.1.5-1.3,1.2,0,.3.3.3.5.3.2,0,.4.2.4.4v.6c0,.2,0,.5-.1.8l-.3.4c.8,0,4.1.1,4.7.7,1.2,1-2.3,1.2-3.1,1.4l2.8,10.7c0,.2,0,.3.1.6v.2c0,.3-.3.5-.6.5s-.4-.2-.5-.6c-1.2-3.1-1.8-7.4-2.8-10.7,0-.2,0-.4-.2-.5l1,9.5c0,.2,0,.4-.2.5-.3.3-.9.1-.9-.3l-1.2-10h-2.2l-1.5,12.2c0,.2-.2.3-.3.3h0c-.3,0-.5-.1-.6-.3h0c0,0,0-.2,0-.3l1.2-10.6-1.2,3.5M43.3,35.4h-2c-.3.1,0,.8.1.9.5.4,2.3.1,1.9-.9Z"/>
  <path d="M51.5,24.2c-2.1-2.3-4.4-4.5-6.6-6.7-.3-.3-1-1.4-1.4-1.2-.2,0-.4.5-.6.6-.1.1-.4.1-.5.3-.7.6,0,3.2-1.1,3.2l-.5-.2-3.5-3.5c-.8-1.3,1.5-1,2.2-1.1,1.1-.2,3.7-4.1,4.8-4.2.7,0,2.1,1.3,2,2,0,.5-1.3,1.6-1.8,1.9-.2.2.3.7.4.9.3.4.8.6,1.1,1,2.2,2.1,4.3,4.3,6.5,6.5v24.9c.6,0,1,0,1.5.1.3,0,.5.4.5.7,0,.3-.2.5-.6.5-.5,0-3.6,0-4,0s-.4-.3-.5-.5c-.2-.9,1.5-.9,2.1-.8v-24.3h0ZM44.4,12.6l-3.2,3.2.6.6,3.2-3.1c.2-.2-.3-.7-.5-.6h0ZM40.9,18.5c.5-1-.9-2.3-1.8-1.8l1.8,1.8Z"/>
  <ellipse class="st0" cx="31.2" cy="49.7" rx="28.5" ry="3.9"/>
</svg>