<?xml version="1.0" encoding="UTF-8"?>
<svg id="Layer_1" xmlns="http://www.w3.org/2000/svg" version="1.1" viewBox="0 0 70.87 70.87">
  <!-- Generator: Adobe Illustrator 29.1.0, SVG Export Plug-In . SVG Version: 2.1.0 Build 142)  -->
  <path d="M70.05,2.11c.63-.13.93.35.93.93l-.04,44.73-.17.25c-11.7,7-23.63,13.65-35.33,20.66h-.7C23.34,61.71,11.86,54.85.34,48.07L0,47.76V4.4c.32-.42.61-.47,1.12-.38,1.03.19,2.5.82,3.57,1.14,10.38,3.11,20.8,6.06,31.14,9.29,11.45-3.99,22.85-8.16,34.23-12.35ZM.7,4.81v40.8l.83.31V6.83c-.04-.41.18-.53.54-.61l33.94,9.67c4.79-1.55,9.56-3.13,14.32-4.76,5.87-2,11.8-4.33,17.7-6.17.45-.14.94-.4,1.24.13l.06,40.94.91-.33c.05-.5-.02-41.91,0-42.78-11.45,4.12-22.87,8.32-34.4,12.22L.7,4.81ZM45.38,29.63c.06-.22,0-1.02,0-1.32,0-.22.4-.43.62-.46.29-.03,2.09.19,2.36.29.51.19.28.94.33,1.37h1.2s.37.28.37.37v3.3s0,.2.02.26c.35.14.65-.27.89-.35.3-.09,1.61.17,1.94.29.59.22.6.92.28,1.37-.18.24-.49.34-.78.26-.75-.22-1.94-.14-1.93-1.04-.68.02-1.32.1-1.96.1,0,.2.17.17.21.37.12.54-.09,1.16-.73,1.1l1.5,5.48.12.12,4.29.59c.07.02.2-.08.2-.12v-20.65c0-.29.04-.5.39-.6l10.73-2.08c.22-.03.44.07.56.25l.13,24.8,2.48.39V5.56s-32.36,11-32.36,11l.02,22.87,7.47.98,1.49-4.86c-1.1-.15-.81-1.76.33-1.61l-.38-.71c-.46.14-.72.35-1.23.34-2.61-.03-2.38-4.26.08-4.05.34.03,1.23.59,1.36.13ZM35.46,39.37v-22.9S2.19,7.04,2.19,7.04v36.92l33.27-4.59ZM28.7,35.7c-.34.01-.69-.02-1.04,0-5.79.24-11.56.66-17.34.91-.49.02-1.98.27-2.31,0-.08-.06-.11-.17-.15-.27l-.06-18.2c0-.77.48-.75,1.11-.69,1.23.11,2.77.47,4.03.67,6.03.98,12.05,2.09,18.09,3.05.37.05.58.3.56.68v13.21c-.14.84-1.72.39-2.31.63M8.55,18.11v17.92l22.3-1.03.08-13.06-22.39-3.84ZM65.37,19.02l-10.51,1.93c-.03.23.31,15.03.01,22.07l.1.44h.48s-.07-22.16-.07-22.16c.07-.03,9.4-1.72,9.4-1.69v25.22l.58.21v-26.01ZM64.21,44.79l-.08-24.44-8.04,1.53.07,21.69,8.06,1.23ZM46.21,29.42h1.82l-.09-.74c-.59.05-1.15-.11-1.73-.09v.83ZM49.59,30.17l-2.89-.16c.62.75.8,1.57.48,2.5-.12.35-.36.49-.48.8h2.89v-3.14ZM44.06,32.98c1.02-.42,1.03-2.43-.04-2.81.06.22.23.36.31.6.31.84.08,1.45-.27,2.21ZM43.4,30.5c-.59.04-.65,1.07-.56,1.51.05.24.27.4.31.64l.16-.04c-.44-.64-.46-1.53.08-2.11ZM46.12,32.73c.73-.2.73-1.49.37-1.98-.08-.1-.26-.35-.37-.21.41.64.3,1.53,0,2.19ZM45.3,32.65c.6-.44.51-1.49.12-2.06-.22-.03-.09.12-.07.24.12.68.18,1.15-.05,1.83ZM51.33,33.72c-.42.72,1.15.68,1.32.71.31.06.36-.32.11-.45-.14-.07-1.38-.34-1.43-.26ZM45.34,34.96h2.73c.24,0,.37-.36-.08-.42-.66-.08-1.33.07-1.99.09-.2,0-.56-.1-.65-.08-.19.05-.17.36-.01.41ZM46.87,35.78h-.5c.07,2.95-.2,5.9,0,8.84h.5v-8.84ZM47.61,36.53v4.38c.47.04.74.09,1.32.12l-1.32-4.5ZM45.63,40.57v-3.63l-1.16,3.51,1.16.13ZM35.47,40.08c-6.63.99-13.29,1.82-19.93,2.74-1.74.24-3.48.56-5.23.8-2.7.38-5.43.61-8.11,1.09v.98s33.27-4.88,33.27-4.88v-.74ZM43.56,40.99l-7.35-.91v.74s6.9.99,6.9.99l.16-.08.29-.74ZM45.63,41.23l-1.4-.16-.19.9c.64.08,1.08.16,1.59.21.01-.12-.03-.75,0-.95ZM49.16,41.74c-.51-.08-.17-.02-1.64-.21v.85l1.82.26-.18-.89ZM54.3,43.3c-.04-.22.11-.9-.14-.98l-4.24-.51.31.91,4.07.58ZM43.05,42.45c-1.01-.14-7.04-1.17-7.29-1.17l-3.35.65,10.1,2.11.53-1.59ZM45.63,42.8c-.72-.07-1.09-.13-1.86-.24,0,0-.47,1.47-.54,1.65l2.4.41v-1.82ZM49.84,44.45l-.32-1.2-1.98-.23c0,.74,0,1.38,0,2.01l2.31-.58ZM52.15,43.63l-1.82-.25c.05.16.14.78.28.81.43-.13.88-.25,1.3-.41.09-.03.25-.02.23-.14ZM68.59,46.19l-15.32-2.4-2.6.58.33,1.2,13.42,2.76,4.17-2.14ZM33.42,44.3l8.36,2.04.69-2.02-4.78-1.03-4.27,1ZM26.97,42.68l6.15,1.5,4.19-.99-5.61-1.19-4.73.68ZM68.59,44.37l-2.48-.25v.99s2.48.33,2.48.33v-1.07ZM45.57,44.89c-.22-.06-2.29-.42-2.43-.43l-.56,2.06c.19.17,16.55,4.22,17.07,4.19l4.32-2.21-12.88-2.69-.51.23-.24-.04-.09-.3-2.83-.47h0c-.18.1-.38.15-.59.17-.46.03-1.21,0-1.26-.5ZM50.17,45.45c-.04-.14-.15-.8-.29-.81l-1.53.48,1.82.33ZM34.73,67.58v-3.51l-.74-.5c-7.44-3.86-14.79-7.92-22.22-11.81-3.66-1.92-7.32-3.85-11.07-5.57.05.32-.1.95.08,1.2.08.11.64.41.81.51,2.32,1.41,4.73,2.7,7.07,4.08,8.72,5.15,17.4,10.37,26.07,15.59ZM35.55,64.07v3.51l23.15-13.48c3.6-2.18,7.5-4.05,11.06-6.28.45-.28.52-.02.49-.74,0-.19,0-.33-.02-.72l-34.69,17.71ZM59.25,50.9l-6.19-1.35-5.95,2.67,5.91,1.9,6.23-3.22ZM52.5,54.36l-17.54-5.63-7.1,2.2,17.32,6.95,7.32-3.52ZM44.47,58.22l-19.63-8.03-9.33,2.41,19.53,10.66,9.44-5.04ZM52.48,49.38l-25.74-6.55-6.22.83,25.9,8.31,6.06-2.59ZM34.73,48.4l-15.07-4.65-6.65,1.03,14.19,5.8,7.53-2.18ZM24.11,49.9c-2.22-.9-11.39-4.82-11.97-4.96l-9.12,1.33,11.9,5.97,9.2-2.34Z"/>
  <path d="M63.27,32.51c1.26-.02.94,2.31-.42,1.61-.84-.43-.38-1.6.42-1.61Z"/>
  <path d="M9.12,18.77l21.31,3.51-.08,12.4-21.23.94v-16.85ZM9.78,19.72v15.14l10.25-.38c0-.17,0-13.15,0-13.28l-9.97-1.6c-.1-.03-.25.03-.28.12ZM20.77,21.33v13.1l8.92-.3.09-11.28-9.01-1.52Z"/>
  <path d="M47.82,32.56c-.08-.05-.11-.11-.12-.21-.04-.23-.09-.92-.08-1.15,0-.19.09-.43.12-.63.11-.16,1.37-.09,1.49.08.03.29.16,1.9-.17,1.9h-1.24ZM48.28,31.89c.14.01.33.16.39-.04v-.56s-.4-.14-.4-.14v.73Z"/>
</svg>