<?xml version="1.0" encoding="UTF-8"?>
<svg xmlns="http://www.w3.org/2000/svg" version="1.1" viewBox="0 0 70.9 70.9">
  <!-- Generator: Adobe Illustrator 29.1.0, SVG Export Plug-In . SVG Version: 2.1.0 Build 142)  -->
  <defs>
    <style>
      .st0 {
        fill: #111;
      }

      .st1 {
        stroke: #221b15;
      }

      .st1, .st2, .st3, .st4, .st5 {
        fill: none;
        stroke-miterlimit: 10;
      }

      .st6 {
        fill: #fff;
      }

      .st2, .st4, .st5 {
        stroke: #1e1e1e;
      }

      .st3 {
        stroke: #000;
        stroke-width: .8px;
      }

      .st4 {
        stroke-width: 1.1px;
      }

      .st5 {
        display: none;
      }
    </style>
  </defs>
  <g id="Layer_2">
    <path class="st1" d="M51,41.7"/>
    <path class="st1" d="M16.4,41.7"/>
    <path class="st1" d="M28.5,39.2"/>
    <path class="st1" d="M21.9,39.2"/>
    <path class="st1" d="M30.2,39.2"/>
    <path class="st1" d="M45.6,39.2"/>
    <path class="st2" d="M38,44.2"/>
    <path class="st2" d="M22.2,44.2"/>
    <path class="st2" d="M40.7,37"/>
    <path class="st2" d="M30.9,37"/>
    <polyline class="st5" points="22.2 33.3 19.4 34.5 19.4 25 31.2 19.6 31.2 29.1"/>
    <polyline class="st4" points="47.5 40 47.5 24.9 40.7 23.3 40.7 38.4"/>
    <g>
      <rect class="st6" x="39.6" y="24.7" width="2.2" height="2.2"/>
      <rect class="st6" x="41.2" y="23.1" width="2.2" height="1.2" transform="translate(10.3 60.1) rotate(-78)"/>
      <rect class="st6" x="39.3" y="38.3" width="2.2" height="1.7" transform="translate(-6.3 70.5) rotate(-78)"/>
      <rect class="st6" x="44.9" y="24.1" width="1.8" height=".7" transform="translate(12.4 64.2) rotate(-78)"/>
      <rect class="st6" x="39.6" y="28.6" width="2.2" height="2.2"/>
      <rect class="st6" x="39.6" y="33" width="2.2" height="2.2"/>
      <rect class="st6" x="46.3" y="26.4" width="2.2" height="2.2"/>
      <rect class="st6" x="46.3" y="31" width="2.2" height="2.2"/>
      <rect class="st6" x="46.5" y="35.5" width="2.2" height="2.2"/>
      <path class="st3" d="M34.7,33.3l-1,.7c0,1.3,0,2.7,0,4,0,0-.2.2-.3.2h0c.2.2.6,0,.6-.3.2-.1,1.1-.7,1.1-.7,0-1.1,0-2.2,0-3.3-.2,0-.4-.2-.4-.6Z"/>
      <path class="st3" d="M35.4,33.7c-.4.1-.2-.2-.2-.4,0-.3,0-.6,0-.8-.1-.3-.5-.2-.7-.3,0,.3-1,.6-1.1.5-.2-.1-.5,0-.3-.5,0-.2.4-.3.6-.3h0c-.3-.4-.6-.7-1.1-.9l-.4-.2c-.4.3-.7.7-1.2.6-.2,0-1.7-.6-1.9-.7-.2-.1,0-.4.2-.5-.2,0-.4-.2-.6-.2-.4,0-2.1,1-2.2,1.5,0,.4-.2,4.3,0,4.3l6.1,2.4c.2,0,.5,0,.8,0,.1,0,.3-.1.3-.2,0,0,0-2.7,0-4l1-.7c0,.4.2.6.4.6.1,0,.2-.2.2-.3Z"/>
      <path class="st3" d="M32.2,30.8c-1,0-1.9-1.1-2.9-.5-.1.1-.5.3-.2.5.2.1,1.7.7,1.9.7.5,0,.8-.3,1.2-.6-.1,0-.1,0,0-.1Z"/>
      <path class="st3" d="M36.3,29.8c-1.4-1.3-2.7.2-4.1,1-.1,0-.1.1,0,.1l.6.3c.3.2.5.3.8.6l.2.2c.5,0,.5.2.7.3.2,0,.5,0,.7.3.1.2,0,.5,0,.8,0,.2-.1.5.2.4.3-.3.8-.4,1.1-.7,1.1-1,.6-2.4-.2-3.2Z"/>
      <path class="st3" d="M30.2,33.8v2.5c-1.1-.4-2.7-1.1-2.9-1.2v-2.4c1.3.5,1.4.6,2.9,1.1Z"/>
    </g>
  </g>
  <g id="Layer_1">
    <path class="st0" d="M31.2,21.6h1.5v3h-1.5v-3ZM42,38.6l.4-1.4,2.9.8-.4,1.4-2.9-.8Z"/>
    <path class="st0" d="M26.6,36.9c-.4-.3-.8-.3-1.3,0-.4.2-.7.6-.7,1.1v10.7c0,.5.3.9.7,1.1.2,0,.4,0,.5,0s.5,0,.7-.2l4-3,7.6,1.9h0l11.7-7.5c.2,0,.3-.4.3-.6v-3.3c1.8-.6,3.8-1.8,4.6-3.5.7-1.3.6-2.7-.3-4-.5-.8-1.2-1.4-1.9-1.9-.3-.3-.8-.2-1,.1-.3.3-.2.8,0,1,.7.5,1.2,1,1.6,1.6.6.8.6,1.6.2,2.5-.6,1.1-1.9,2-3.3,2.6v-14.4h0c0-.1-18.1-4.5-18.1-4.5-.2,0-.4,0-.6.1l-11.1,7.5h0v.2h0v14.3c-1.4-.5-2.6-1.2-3.3-2.4h0l-.2-.5c-.4-.8-.4-1.9.3-2.6s.3-.8,0-1c-.3-.3-.8-.3-1,0-1.1,1.1-1.3,2.9-.5,4.4,1.1,2.1,3.6,2.9,5.5,3.5h.2c.4.2.9.3,1.3.5h.2c.3,0,.6-.2.7-.5.1-.4-.1-.8-.5-.9-.4,0-.8-.3-1.3-.4h-.1v-13.9l9.6,2.4v2.5h1.5v-2.1l5,1.2v7h-.2s-.4,1.3-.4,1.3h.5v9.6l-5.5-1.4,1.5-1.2c.3-.2.5-.6.5-1s-.2-.7-.5-1l-5-3.7,1.5-1.1-1.7-.6-1,.7M26.1,47.8v-9.5l6.3,4.8-2.5,1.9-3.9,2.9h0ZM32.7,19.4v-2l15.5,3.7-10,6.4-15.6-3.9,8.6-5.8v1.6h1.5ZM48.2,37.3h0c.3,0,.7,0,1.1,0v1.9l-2-.5-.2,1.4,1.2.3-9.2,5.8v-8.4l1.2.3v-1.5s-1.2-.3-1.2-.3v-7.6l10.2-6.5v13.6c-.4,0-.8,0-1.1,0s-.7.3-.7.8.3.7.7.7h.1Z"/>
    <path class="st0" d="M14.8,43.1c1.8,1.4,4.2,2.5,7.1,3.2h.2c.3,0,.6-.2.7-.6,0-.4-.2-.8-.5-.9-2.8-.7-4.9-1.6-6.6-2.9-2.6-2.1-3.7-5.7-2.5-8.6.6-1.5,1.8-2.7,3.6-3.6.4-.2.5-.6.3-1s-.6-.5-1-.3c-2.1,1-3.6,2.6-4.4,4.4-1.4,3.5-.2,7.8,3,10.3h0ZM52.4,25.7c3.8,1.6,5.6,3.7,5.6,6.3s-1.7,5.4-4.3,6.8c-.4.2-.5.6-.3,1,0,.3.4.4.6.4h.3c3-1.6,5.1-4.9,5.1-8.1s-.8-3.7-2.4-5.1c-1-.9-2.4-1.8-4.1-2.5-.4-.2-.8,0-1,.4s.5.8.5.8Z"/>
    <path class="st0" d="M70.1,7.8H.7c-.4,0-.7.3-.7.7v46c0,.4.3.7.7.7h28.3v5.6h1.5v-5.6h9.9v5.6h1.5v-5.6h28.3c.4,0,.7-.3.7-.7V8.6c0-.4-.3-.7-.7-.7h0ZM69.4,9.3v41.7H1.5V9.3h67.9ZM1.5,53.9v-1.4h67.9v1.4H1.5ZM44.4,61.6h-17.9c-2.1,0-3.8,1.7-3.8,3.8h1.5c0-1.3,1.1-2.4,2.4-2.4h17.9c1.3,0,2.4,1.1,2.4,2.4h1.5c0-2.1-1.7-3.8-3.8-3.8h-.2Z"/>
  </g>
</svg>